<svg id="visual" viewBox="0 0 900 600" width="900" height="600" xmlns="http://www.w3.org/2000/svg" xmlns:xlink="http://www.w3.org/1999/xlink" version="1.1"><rect x="0" y="0" width="900" height="600" fill="#931C1C"></rect><path d="M0 388L129 370L257 433L386 409L514 394L643 428L771 395L900 380L900 601L771 601L643 601L514 601L386 601L257 601L129 601L0 601Z" fill="#871400"></path><path d="M0 477L129 426L257 430L386 433L514 454L643 453L771 467L900 403L900 601L771 601L643 601L514 601L386 601L257 601L129 601L0 601Z" fill="#a32d04"></path><path d="M0 463L129 453L257 504L386 476L514 443L643 495L771 489L900 460L900 601L771 601L643 601L514 601L386 601L257 601L129 601L0 601Z" fill="#be4407"></path><path d="M0 482L129 494L257 513L386 491L514 488L643 514L771 524L900 527L900 601L771 601L643 601L514 601L386 601L257 601L129 601L0 601Z" fill="#da5b09"></path><path d="M0 559L129 560L257 568L386 559L514 566L643 556L771 572L900 525L900 601L771 601L643 601L514 601L386 601L257 601L129 601L0 601Z" fill="#f5730a"></path></svg>